<svg width="68" height="68" viewBox="0 0 68 68" fill="none" xmlns="http://www.w3.org/2000/svg">
<g clip-path="url(#clip0_244_133)">
<path d="M68 34C68 15.2203 52.7797 0 34 0C15.2203 0 0 15.2203 0 34C0 50.9721 12.4259 65.0383 28.6902 67.5896V43.8361H20.064V34H28.6902V26.5107C28.6902 17.9961 33.757 13.2839 41.5265 13.2839C45.2519 13.2839 49.1459 13.9546 49.1459 13.9546V22.3191H44.8614C40.6327 22.3191 39.3284 24.9462 39.3284 27.629V34H48.7555L47.2467 43.8361H39.3284V67.5896C55.5741 65.0383 68 50.9721 68 34Z" fill="#1877F2"/>
<path d="M47.2263 43.8364L48.7364 34.0003H39.3094V27.6293C39.3094 24.9464 40.6322 22.3194 44.8424 22.3194H49.1269V13.9549C49.1269 13.9549 45.2328 13.2842 41.5074 13.2842C33.7392 13.2842 28.6711 17.9977 28.6711 26.511V34.0003H20.0449V43.8364H28.6711V67.5899C30.4043 67.8688 32.1734 68.0003 33.9809 68.0003C35.7885 68.0003 37.5576 67.8515 39.2908 67.5899V43.8364H47.2263Z" fill="white"/>
</g>
<defs>
<clipPath id="clip0_244_133">
<rect width="68" height="68" fill="white"/>
</clipPath>
</defs>
</svg>
