<svg width="607" height="600" viewBox="0 0 607 600" fill="none" xmlns="http://www.w3.org/2000/svg">
<path d="M87.2266 271.471C109.275 240.63 142.317 226.651 142.317 226.651C143.396 226.202 138.8 183.949 138.706 180.952C137.313 131.593 145.493 80.2354 182.569 44.5936C228.916 0.0680317 313.01 -9.15753 366.178 28.3548C365.508 27.8587 383.67 13.5309 385.205 12.6124C395.128 6.61913 406.325 3.05609 417.885 2.21351C464.407 -1.1388 507.07 35.4418 524.523 79.6924C541.975 123.943 537.969 224.767 505.952 253.845" stroke="#A19AB2" stroke-width="3.38584" stroke-miterlimit="10"/>
<path d="M67.3477 324.974C68.494 312.828 71.6146 300.949 76.5864 289.809C77.0601 288.749 77.5558 287.712 78.0737 286.698" stroke="#A19AB2" stroke-width="3.38584" stroke-miterlimit="10"/>
<path d="M124.844 453.326C119.484 448.452 114.52 443.491 109.971 438.502" stroke="#A19AB2" stroke-width="3.38584" stroke-miterlimit="10"/>
<path d="M571.466 308.367C571.506 311.72 571.466 315.139 571.305 318.565C570.354 339.758 565.818 361.662 554.483 379.51C552.419 382.803 550.117 385.94 547.596 388.897C523.477 385.712 519.879 361.092 491.989 347.174C458.578 330.459 403.869 336.446 403.869 336.446L430.822 311.565C429.381 236.634 374.411 241.234 374.411 241.234L371.617 248.079C373.739 241.88 375.885 236.098 378.055 230.734L378.176 230.453C403.635 167.175 430.011 159.33 450.532 150.192C455.434 149.027 460.454 148.428 465.492 148.408C517.957 148.127 548.748 201.596 562.214 244.64C565.564 255.367 570.716 278.31 571.406 304.11C571.419 305.491 571.466 306.932 571.466 308.367Z" fill="#FCFCFC"/>
<path d="M600.944 589.211C596.871 594.823 590.151 597.88 583.224 597.88H503.633C500.574 597.924 497.54 597.326 494.726 596.127C491.912 594.927 489.38 593.151 487.292 590.914C487.01 590.627 486.745 590.323 486.502 590.002C484.008 586.91 482.448 583.17 482.006 579.221C481.604 575.594 484.298 572.369 487.942 572.517C489.323 572.57 490.638 573.123 491.643 574.071C492.648 575.021 493.276 576.302 493.409 577.679C493.409 577.968 493.469 578.249 493.51 578.531C493.804 580.167 494.523 581.697 495.593 582.969C496.54 584.089 497.728 584.979 499.069 585.572C500.409 586.165 501.867 586.447 503.331 586.395H583.566C585.002 586.419 586.426 586.133 587.742 585.554C589.057 584.975 590.23 584.118 591.183 583.043C592.257 581.799 592.99 580.297 593.31 578.684C593.629 577.072 593.524 575.404 593.005 573.844L557.169 467.207C556.876 466.389 556.53 465.591 556.131 464.82C554.027 460.373 550.693 456.623 546.524 454.016C542.354 451.408 537.525 450.053 532.608 450.11C517.521 450.291 498.367 450.332 496.565 450.332C456.414 450.184 438.144 450.184 428.095 450.452C428.784 447.981 430.031 445.701 431.739 443.788C431.739 443.788 431.78 443.748 431.78 443.728C434.23 441.113 437.585 439.533 441.159 439.309C456.045 438.089 470.785 435.863 485.102 431.974C510.366 425.122 534.464 413.369 551.207 394.469C559.356 385.32 565.516 374.575 569.295 362.917C572.229 353.66 574.077 344.093 574.803 334.409C575.062 331.351 575.223 328.271 575.285 325.17V325.029C575.285 324.318 575.325 323.587 575.325 322.877C575.416 318.458 575.215 314.039 574.722 309.648C579.097 309.683 583.287 311.418 586.406 314.489C586.68 315.211 586.882 315.959 587.009 316.722C587.13 317.444 587.191 318.175 587.19 318.908V405.632C587.197 411.555 586.029 417.421 583.753 422.889C581.477 428.357 578.139 433.319 573.932 437.485C566.964 444.391 564.981 454.871 568.284 464.089L603.899 570.143C604.975 573.325 605.268 576.719 604.754 580.039C604.24 583.358 602.933 586.505 600.944 589.211Z" fill="#120A26" fill-opacity="0.7"/>
<path d="M109.978 586.534V343.404H124.844V586.634L109.978 586.534Z" fill="#FCFCFC"/>
<path d="M403.875 336.412C414.521 335.279 426.835 333.938 438.659 334.207" stroke="#120A26" stroke-opacity="0.7" stroke-width="3.38584" stroke-miterlimit="10"/>
<path d="M345.884 347.152C327.031 351.912 308.688 358.784 293.037 370.209C266.775 389.357 254.769 425.08 265.502 456.028C265.502 456.068 307.71 577.912 307.71 577.912H296.602C294.208 577.911 291.838 578.384 289.627 579.305C287.417 580.225 285.411 581.575 283.725 583.275C280.422 586.561 278.794 592.038 278.794 597.067H378.772L340.779 472.696C339.831 469.631 339.618 466.384 340.157 463.221C340.696 460.058 341.971 457.065 343.879 454.487C345.788 451.908 348.276 449.816 351.144 448.378C354.01 446.941 357.175 446.199 360.382 446.213C382.028 446.823 402.134 447.654 424.028 446.702" stroke="#120A26" stroke-opacity="0.7" stroke-width="3.38584" stroke-miterlimit="10"/>
<path d="M571.62 319.576V319.442C570.648 293.294 569.335 267.495 562.187 244.619C548.721 201.575 517.929 148.106 465.465 148.387C460.427 148.407 455.407 149.006 450.504 150.171C415.921 158.397 391.903 193.858 378.149 230.432L378.028 230.713C376.715 234.222 375.5 237.722 374.384 241.213C373.627 243.562 372.693 245.85 371.59 248.058C367.376 256.555 360.698 263.582 352.428 268.217C344.158 272.853 334.683 274.881 325.242 274.039C261.73 268.259 178.025 264.961 151.662 309.62" stroke="#120A26" stroke-opacity="0.7" stroke-width="3.38584" stroke-miterlimit="10"/>
<path d="M467.689 270.941C458.444 282.111 448.709 292.899 438.647 303.331C418.045 324.706 400.271 347.408 368.301 348.923C342.795 350.15 318.516 340.354 294.397 333.563C268.597 326.301 255.54 320.495 231.495 313.16C224.57 311.057 217.386 309.928 210.15 309.808L185.944 309.996" stroke="#120A26" stroke-opacity="0.7" stroke-width="3.38584" stroke-miterlimit="10"/>
<path d="M373.278 579.483C375.583 578.448 378.082 577.918 380.608 577.927H391.742C391.742 577.927 368.468 532.651 349.856 502.514" stroke="#120A26" stroke-opacity="0.7" stroke-width="3.38584" stroke-miterlimit="10"/>
<path d="M388.567 446.805L466.416 597.88H378.357H362.385" stroke="#120A26" stroke-opacity="0.7" stroke-width="3.38584" stroke-miterlimit="10"/>
<path d="M600.944 589.211C596.87 594.823 590.151 597.88 583.223 597.88H503.632C497.033 597.88 490.595 595.145 486.481 589.982C483.987 586.89 482.427 583.149 481.986 579.201C481.584 575.574 484.277 572.349 487.921 572.496C489.302 572.549 490.617 573.102 491.622 574.051C492.627 575.001 493.255 576.282 493.388 577.659C493.551 579.606 494.314 581.454 495.572 582.949C496.533 584.051 497.724 584.929 499.061 585.521C500.398 586.113 501.849 586.404 503.31 586.375H583.565C585.001 586.399 586.426 586.113 587.741 585.534C589.055 584.955 590.23 584.098 591.182 583.023C592.256 581.778 592.989 580.276 593.309 578.664C593.628 577.052 593.523 575.383 593.005 573.824L557.168 467.207C555.354 462.158 552.015 457.8 547.614 454.737C543.213 451.674 537.968 450.057 532.608 450.11C517.52 450.291 498.366 450.331 496.564 450.331C451.858 450.191 434.258 450.191 424.932 450.533C424.786 450.531 424.643 450.502 424.509 450.445C424.375 450.389 424.254 450.307 424.152 450.203C424.05 450.1 423.969 449.978 423.915 449.843C423.86 449.709 423.832 449.564 423.833 449.42C423.82 445.28 425.337 441.282 428.094 438.196C428.105 438.188 428.114 438.178 428.121 438.167C428.128 438.155 428.132 438.142 428.134 438.129C430.588 435.521 433.941 433.944 437.514 433.717C452.4 432.497 467.139 430.271 481.456 426.382C506.721 419.53 530.819 407.777 547.561 388.877C555.711 379.728 561.871 368.983 565.65 357.325C568.575 348.071 570.416 338.509 571.137 328.83C571.4 325.764 571.561 322.684 571.62 319.591V319.444C571.62 318.74 571.66 318.009 571.66 317.298C571.751 312.88 571.549 308.461 571.057 304.07C578.346 304.03 585.695 309.333 586.968 316.735C587.09 317.457 587.15 318.188 587.149 318.921V405.632C587.156 411.555 585.988 417.421 583.712 422.889C581.436 428.357 578.097 433.318 573.891 437.485C566.923 444.391 564.94 454.87 568.243 464.089L603.858 570.143C604.939 573.322 605.239 576.714 604.732 580.034C604.225 583.353 602.925 586.501 600.944 589.211Z" stroke="#120A26" stroke-opacity="0.7" stroke-width="3.38584" stroke-miterlimit="10"/>
<path d="M218.558 324.982H11.1985C6.11831 324.982 2 329.104 2 334.188V334.195C2 339.279 6.11831 343.4 11.1985 343.4H218.558C223.638 343.4 227.756 339.279 227.756 334.195V334.188C227.756 329.104 223.638 324.982 218.558 324.982Z" stroke="#120A26" stroke-opacity="0.7" stroke-width="3.38584" stroke-miterlimit="10"/>
<path d="M159.835 587.688H75.9899C73.1446 587.688 70.8379 589.996 70.8379 592.844C70.8379 595.691 73.1446 598 75.9899 598H159.835C162.681 598 164.987 595.691 164.987 592.844C164.987 589.996 162.681 587.688 159.835 587.688Z" stroke="#120A26" stroke-opacity="0.7" stroke-width="3.38584" stroke-miterlimit="10"/>
<path d="M98.3809 316.716V317.641C98.5149 324.003 104.498 324.976 109.656 325.016L209.387 324.949C213.755 324.949 217.359 321.596 217.366 317.48V317.306C217.285 313.283 213.775 310.004 209.46 309.997C209.46 309.997 153.666 309.796 110.454 309.669C109.676 311.935 107.707 313.692 105.248 315.127C103.133 316.236 100.768 316.783 98.3809 316.716Z" stroke="#120A26" stroke-opacity="0.7" stroke-width="3.38584" stroke-miterlimit="10"/>
<path d="M43.5375 227.073C43.5583 228.133 43.8611 229.167 44.4152 230.07L90.6424 307.77C91.2407 308.704 92.0259 309.505 92.9478 310.121C93.8703 310.737 94.9101 311.155 96.0021 311.351C97.8492 311.715 99.7633 311.507 101.489 310.754C104.323 309.493 105.958 306.952 105.904 304.378C105.894 304.054 105.861 303.731 105.804 303.412C105.662 302.702 105.398 302.022 105.026 301.401L58.7992 223.701C56.7894 220.302 51.8718 218.968 47.9191 220.717C45.0986 221.951 43.4639 224.492 43.5375 227.073Z" stroke="#120A26" stroke-opacity="0.7" stroke-width="3.38584" stroke-miterlimit="10"/>
<path d="M168.539 309.997C168.539 309.997 174.106 304.693 186.909 296.272" stroke="#120A26" stroke-opacity="0.7" stroke-width="3.38584" stroke-miterlimit="10"/>
<path d="M213.935 222.836L193.642 245.357C192.229 246.926 190.267 247.892 188.163 248.055C186.058 248.219 183.971 247.567 182.333 246.235C181.428 245.5 180.69 244.581 180.166 243.539C179.642 242.497 179.344 241.356 179.294 240.191C179.243 239.026 179.44 237.862 179.871 236.779C180.303 235.695 180.96 234.716 181.797 233.905L185.509 230.312C185.649 230.11 185.81 229.929 185.971 229.742L188.651 226.785L211.697 201.723C214.494 198.646 218.017 196.321 221.943 194.957C225.87 193.594 230.075 193.237 234.174 193.919L234.516 193.979" stroke="#120A26" stroke-opacity="0.7" stroke-width="3.38584" stroke-miterlimit="10"/>
<path d="M242.516 228.931H222.216C219.906 228.931 217.691 228.012 216.058 226.377C214.425 224.743 213.507 222.526 213.507 220.215C213.507 217.903 214.425 215.686 216.058 214.052C217.691 212.417 219.906 211.499 222.216 211.499H251.025" stroke="#120A26" stroke-opacity="0.7" stroke-width="3.38584" stroke-miterlimit="10"/>
<path d="M226.952 228.931C226.671 232.491 225.311 235.126 223.308 236.976C218.149 241.669 208.689 241.153 202.11 237.928" stroke="#120A26" stroke-opacity="0.7" stroke-width="3.38584" stroke-miterlimit="10"/>
<path d="M188.685 226.771C182.849 219.738 184.048 210.178 188.584 202.782C207.309 172.182 243.005 191.029 266.474 204.217C280.444 212.105 293.799 221.039 306.423 230.942C317.598 239.658 327.942 250.09 341.368 255.333C349.408 258.478 358.901 259.229 366.901 255.601" stroke="#120A26" stroke-opacity="0.7" stroke-width="3.38584" stroke-miterlimit="10"/>
<path d="M223.308 236.924C237.469 247.384 250.99 258.684 263.8 270.762" stroke="#120A26" stroke-opacity="0.7" stroke-width="3.38584" stroke-miterlimit="10"/>
<path d="M395.607 72.4299C398.997 75.5275 404.203 75.6951 408.511 75.2794C414.018 74.7766 419.471 73.4423 424.864 72.316L428.14 72.1483H428.187C428.816 72.1551 429.436 72.2845 430.014 72.5312C430.592 72.7772 431.116 73.1353 431.556 73.5838C431.996 74.033 432.343 74.564 432.577 75.1473C432.813 75.7306 432.93 76.3542 432.924 76.9824C432.999 84.0584 432.293 91.1211 430.82 98.0416L437.098 101.441C437.908 99.1747 436.997 95.9095 438.92 95.6615C440.153 93.3618 441.988 91.8666 444.869 93.5763C450.51 96.9286 452.735 106.778 447.301 111.29L450.785 117.807C452 120.092 453.969 121.883 456.356 122.876C458.743 123.869 461.402 124.002 463.876 123.251L460.318 115.38C468.666 116.861 474.508 106.436 471.962 100.073C470.227 95.7017 470.314 92.3025 472.632 88.0517C472.786 87.7634 471.212 87.3813 471.346 87.0863C471.426 83.9686 470.562 80.6297 469.062 79.0407C466.422 76.1979 461.109 75.6884 462.194 71.3706C462.677 69.492 462.855 67.5476 462.724 65.6113C462.44 63.0803 461.619 60.6392 460.314 58.4528C459.009 56.2658 457.252 54.3838 455.16 52.9329C450.765 50.0432 445.847 52.6647 441.151 52.591C435.45 52.5306 431.363 47.6899 425.387 47.6161C422.412 47.5692 420.027 48.7291 417.481 50.1706C415.351 51.3975 413.254 52.6781 411.217 54.066C409.18 55.4538 407.372 56.654 404.94 56.6607C401.771 56.7009 398.709 54.6895 395.52 55.6282C393.907 56.0626 392.49 57.0321 391.5 58.377C390.489 63.3251 392.318 69.4464 395.607 72.4299Z" fill="#120A26" fill-opacity="0.7"/>
<path d="M437.126 100.705C437.535 98.9588 438.137 97.2632 438.921 95.65C440.154 93.3503 441.997 91.8552 444.871 93.5649C450.512 96.9172 452.736 106.766 447.303 111.278L450.786 117.795C452 120.08 453.97 121.872 456.357 122.865C458.745 123.858 461.403 123.99 463.877 123.24" stroke="#120A26" stroke-opacity="0.7" stroke-width="3.38584" stroke-linecap="round" stroke-linejoin="round"/>
<path d="M460.319 115.368L463.863 123.253C464.754 125.137 467.307 130.93 469.98 136.95C471.883 141.261 473.866 145.7 475.34 148.965" stroke="#120A26" stroke-opacity="0.7" stroke-width="3.38584" stroke-linecap="round" stroke-linejoin="round"/>
<path d="M402.91 87.0546C402.91 87.0546 413.355 84.4532 417.917 92.3781" stroke="#120A26" stroke-opacity="0.7" stroke-width="3.38584" stroke-miterlimit="10"/>
<path d="M405.985 110.715C403.171 111.486 399.386 112.177 397.215 109.723L401.945 99.7597C403.093 97.3165 403.377 94.5548 402.749 91.9286C401.717 87.5103 399.138 80.799 401.905 74.9727" stroke="#120A26" stroke-opacity="0.7" stroke-width="3.38584" stroke-miterlimit="10"/>
<path d="M413.015 97.3627C413.808 96.0466 413.197 94.2236 411.65 93.291C410.103 92.3584 408.207 92.6688 407.415 93.9849C406.622 95.301 407.233 97.124 408.78 98.0566C410.326 98.9899 412.222 98.6788 413.015 97.3627Z" fill="#120A26" fill-opacity="0.7"/>
<path d="M428.255 160.089L425.776 132.56" stroke="#120A26" stroke-opacity="0.7" stroke-width="3.38584" stroke-miterlimit="10"/>
<path d="M437.1 101.427C437.1 101.186 437.1 100.938 437.1 100.697C437.113 100.438 437.113 100.178 437.1 99.9189" stroke="#120A26" stroke-opacity="0.7" stroke-width="3.38584" stroke-linecap="round" stroke-linejoin="round"/>
<path d="M437.106 101.437L434.949 100.277L430.822 98.0308" stroke="#120A26" stroke-opacity="0.7" stroke-width="3.38584" stroke-linecap="round" stroke-linejoin="round"/>
<path d="M419.834 111.424C419.834 111.424 419.626 118.397 411.66 121.266" stroke="#120A26" stroke-opacity="0.7" stroke-width="3.38584" stroke-miterlimit="10"/>
<path d="M460.32 115.367C468.668 116.849 474.51 106.423 471.964 100.061C470.229 95.6891 470.316 92.2899 472.634 88.0392C472.788 87.7509 472.915 87.4693 473.049 87.1877C474.771 83.3862 474.161 79.6182 471.455 76.3865C468.889 73.3292 465.023 72.2565 466.135 67.7979C466.635 65.8623 466.82 63.859 466.684 61.8643C466.396 59.2609 465.552 56.75 464.212 54.5006C462.871 52.2512 461.064 50.3156 458.913 48.8238C454.397 45.8269 449.312 48.5422 444.449 48.4685C438.593 48.3813 434.366 43.3931 428.222 43.3193C425.147 43.3193 422.668 44.4658 420.055 45.9542C417.858 47.2214 415.68 48.5556 413.604 49.977C411.527 51.3984 409.584 52.6589 407.118 52.6589C403.849 52.6589 400.693 50.6475 397.424 51.5861C394.155 52.5248 392.212 55.2335 391.569 58.3712C390.523 63.2924 392.352 69.4406 395.642 72.4509C399.032 75.5485 404.238 75.7161 408.545 75.3004C414.052 74.7975 419.506 73.4633 424.899 72.3369L428.175 72.1693H428.222C428.851 72.1754 429.471 72.3054 430.049 72.5515C430.627 72.7982 431.151 73.1556 431.591 73.6048C432.031 74.0533 432.378 74.585 432.613 75.1676C432.848 75.7509 432.965 76.3745 432.959 77.0034C433.034 84.0794 432.328 91.1414 430.855 98.0626" stroke="#120A26" stroke-opacity="0.7" stroke-width="3.38584" stroke-miterlimit="10"/>
<path d="M438.365 122.997C438.365 122.997 425.917 139.544 414.856 135.837C403.795 132.129 403.232 111.646 403.232 111.646" stroke="#120A26" stroke-opacity="0.7" stroke-width="3.38584" stroke-linecap="round" stroke-linejoin="round"/>
<path d="M109.978 586.534V343.404H124.844V586.634" stroke="#120A26" stroke-opacity="0.7" stroke-width="3.38584" stroke-miterlimit="10"/>
<path d="M123.658 201.931C136.912 201.931 147.656 191.179 147.656 177.915C147.656 164.652 136.912 153.899 123.658 153.899C110.404 153.899 99.6602 164.652 99.6602 177.915C99.6602 191.179 110.404 201.931 123.658 201.931Z" fill="#120A26" fill-opacity="0.7"/>
<path d="M114.271 184.11C113.569 183.63 112.946 183.044 112.422 182.374C111.495 181.226 111.022 179.778 111.089 178.305C111.157 176.831 111.763 175.433 112.79 174.375C113.461 173.685 114.282 173.158 115.19 172.838C116.098 172.519 117.067 172.413 118.023 172.531C117.811 171.202 118.038 169.839 118.669 168.649C119.299 167.46 120.3 166.508 121.519 165.938C122.738 165.368 124.109 165.21 125.425 165.489C126.742 165.768 127.932 166.468 128.816 167.483C130.685 169.601 131.563 172.753 131.891 175.528C132.06 176.977 132.083 178.44 131.958 179.893C131.898 180.624 131.636 184.841 130.953 185.109C126.437 186.839 118.74 187.214 114.271 184.11Z" fill="#FCFCFC"/>
<path d="M292.977 196.265C300.081 196.265 305.84 190.502 305.84 183.392C305.84 176.282 300.081 170.519 292.977 170.519C285.872 170.519 280.113 176.282 280.113 183.392C280.113 190.502 285.872 196.265 292.977 196.265Z" fill="#120A26" fill-opacity="0.7"/>
<path d="M292.092 177.426C292.483 177.19 292.912 177.02 293.358 176.923C294.127 176.738 294.936 176.841 295.634 177.211C296.333 177.582 296.872 178.195 297.15 178.935C297.332 179.418 297.399 179.938 297.347 180.452C297.294 180.966 297.124 181.461 296.849 181.898C297.526 182.114 298.118 182.539 298.538 183.114C298.957 183.688 299.184 184.381 299.184 185.093C299.184 185.804 298.957 186.498 298.538 187.072C298.118 187.646 297.526 188.072 296.849 188.288C295.315 188.624 293.716 188.507 292.246 187.953C291.506 187.703 290.792 187.379 290.116 186.987C289.774 186.793 287.784 185.707 287.818 185.311C288.012 182.71 289.586 178.888 292.092 177.426Z" fill="#FCFCFC"/>
<path d="M193.241 168.709C194.682 169.913 196.292 170.9 198.018 171.639C201.196 172.967 204.664 173.445 208.083 173.028C211.502 172.611 214.754 171.313 217.52 169.259C219.664 167.623 221.54 165.364 223.757 163.721C225.304 162.508 227.162 161.755 229.117 161.549C229.767 161.567 230.412 161.431 231 161.153C232.487 160.228 230.732 158.692 230.578 157.606C230.371 155.869 230.807 154.117 231.804 152.678C234.348 148.881 235.502 144.319 235.069 139.767C234.636 135.215 232.643 130.953 229.428 127.704C226.213 124.455 221.973 122.418 217.43 121.94C212.885 121.463 208.315 122.573 204.496 125.082C200.724 127.556 197.924 131.224 195.083 134.73C192.577 137.821 189.958 140.865 188.122 144.398C183.808 152.705 186.327 162.936 193.241 168.709Z" fill="#120A26" fill-opacity="0.7"/>
<path d="M218.827 141.328C221.198 141.328 223.121 139.404 223.121 137.03C223.121 134.656 221.198 132.732 218.827 132.732C216.455 132.732 214.532 134.656 214.532 137.03C214.532 139.404 216.455 141.328 218.827 141.328Z" fill="#FCFCFC"/>
<path d="M210.518 151.492C212.89 151.492 214.813 149.568 214.813 147.194C214.813 144.821 212.89 142.896 210.518 142.896C208.146 142.896 206.224 144.821 206.224 147.194C206.224 149.568 208.146 151.492 210.518 151.492Z" fill="#FCFCFC"/>
<path d="M202.726 161.033C205.098 161.033 207.021 159.109 207.021 156.735C207.021 154.362 205.098 152.438 202.726 152.438C200.354 152.438 198.432 154.362 198.432 156.735C198.432 159.109 200.354 161.033 202.726 161.033Z" fill="#FCFCFC"/>
<g opacity="0.46">
<path opacity="0.46" d="M326.93 116.488C326.594 118.171 325.888 119.757 324.861 121.133C323.834 122.507 322.512 123.635 320.994 124.433L285.178 143.474C283.828 144.195 282.348 144.642 280.823 144.791C279.3 144.938 277.762 144.783 276.298 144.335C274.834 143.886 273.473 143.153 272.293 142.177C271.112 141.201 270.136 140.001 269.421 138.646L240.874 84.8552C239.427 82.1271 239.122 78.9364 240.026 75.983C240.929 73.0303 242.966 70.5563 245.691 69.1061L281.534 50.0716C286.927 47.2021 294.37 49.4012 297.264 54.8923L325.818 108.663C327.103 111.058 327.497 113.83 326.93 116.488Z" fill="#120A26" fill-opacity="0.7"/>
</g>
<path d="M316.298 112.412L281.373 99.0898C280.928 98.9168 280.559 98.591 280.332 98.1713C280.105 97.7509 280.035 97.2635 280.134 96.7968L288.233 59.5124C288.325 59.1155 288.535 58.7561 288.836 58.4819C289.136 58.207 289.512 58.03 289.915 57.9744C290.318 57.918 290.728 57.9858 291.092 58.1681C291.455 58.3505 291.755 58.6395 291.952 58.9962L318.777 109.589C318.967 109.949 319.042 110.359 318.995 110.763C318.946 111.168 318.777 111.548 318.508 111.854C318.24 112.16 317.885 112.377 317.49 112.477C317.095 112.576 316.679 112.553 316.298 112.412Z" fill="#FCFCFC"/>
<g opacity="0.46">
<path opacity="0.46" d="M368.468 153.918C369.201 154.444 369.807 155.128 370.24 155.92C370.673 156.711 370.925 157.59 370.974 158.491L372.313 179.805C372.364 180.61 372.256 181.416 371.995 182.178C371.734 182.941 371.325 183.645 370.791 184.249C370.258 184.853 369.611 185.346 368.887 185.699C368.162 186.052 367.376 186.26 366.572 186.308L334.608 188.28C332.988 188.377 331.396 187.827 330.18 186.751C328.964 185.676 328.225 184.161 328.123 182.54L326.817 161.213C326.759 159.603 327.321 158.032 328.387 156.824C329.453 155.617 330.941 154.864 332.545 154.723L364.502 152.712C365.925 152.632 367.33 153.06 368.468 153.918Z" fill="#120A26" fill-opacity="0.7"/>
</g>
<path d="M364.22 158.129L350.232 171.988C350.054 172.156 349.823 172.258 349.578 172.275C349.334 172.292 349.091 172.224 348.892 172.082L332.813 160.08C332.641 159.951 332.513 159.772 332.447 159.567C332.38 159.363 332.377 159.142 332.439 158.936C332.502 158.731 332.625 158.549 332.794 158.415C332.962 158.281 333.168 158.203 333.382 158.19L363.45 156.332C363.66 156.327 363.867 156.385 364.045 156.499C364.222 156.612 364.36 156.776 364.443 156.97C364.526 157.163 364.549 157.377 364.51 157.584C364.47 157.791 364.369 157.98 364.22 158.129Z" fill="#FCFCFC"/>
<g opacity="0.46">
<path opacity="0.46" d="M151.401 271.042C149.303 271.388 147.182 271.567 145.057 271.579C124.703 271.579 125.386 252.692 125.386 252.692L142.249 256.339C141.612 254.777 141.368 253.082 141.539 251.403C141.709 249.724 142.29 248.113 143.228 246.711C147.086 241.066 156.051 243.969 156.051 243.969L161.625 240.375L160.419 247.08L167.889 245.82L164.05 250.265C169.209 255.226 175.781 270.332 159.93 278.183C144.078 286.034 137.238 276.627 137.238 276.627L145.057 271.586L151.401 271.042Z" fill="#120A26" fill-opacity="0.7"/>
</g>
<path d="M151.067 252.571C152.413 252.571 153.505 251.479 153.505 250.131C153.505 248.783 152.413 247.69 151.067 247.69C149.72 247.69 148.628 248.783 148.628 250.131C148.628 251.479 149.72 252.571 151.067 252.571Z" fill="#FCFCFC"/>
<path d="M193.575 597.879H472.459" stroke="#120A26" stroke-opacity="0.7" stroke-width="2.11196" stroke-miterlimit="10"/>
</svg>
