<svg width="66" height="68" viewBox="0 0 66 68" fill="none" xmlns="http://www.w3.org/2000/svg">
<g clip-path="url(#clip0_244_177)">
<path d="M31.5811 0C17.2059 0 13.0011 0.0146097 12.1832 0.0810172C9.2334 0.324069 7.39732 0.782281 5.39714 1.76644C3.85564 2.52216 2.63965 3.39874 1.44115 4.62728C-0.744657 6.86654 -2.06825 9.62245 -2.54711 12.8977C-2.77981 14.4875 -2.84842 14.8129 -2.86187 22.9358C-2.86725 25.6439 -2.86187 29.2074 -2.86187 33.9874C-2.86187 48.1747 -2.84573 52.3225 -2.77712 53.1287C-2.53904 55.9643 -2.08843 57.748 -1.13474 59.6991C0.687891 63.4338 4.1677 66.2375 8.26627 67.2841C9.68536 67.6454 11.2538 67.8433 13.2661 67.9376C14.1189 67.9748 22.811 68 31.5085 68C40.206 68 48.9022 67.9894 49.7348 67.9482C52.0659 67.8393 53.4191 67.66 54.9148 67.2788C59.0403 66.2269 62.4569 63.4657 64.3158 59.6778C65.2507 57.7732 65.7242 55.9218 65.9394 53.2349C65.9865 52.6492 66.0053 43.307 66.0053 33.9781C66.0053 24.6478 65.9838 15.3229 65.938 14.7372C65.7215 12.0065 65.2467 10.1697 64.2822 8.22922C63.4899 6.64075 62.6116 5.45339 61.3351 4.24079C59.0564 2.09184 56.2707 0.783609 52.951 0.310787C51.3409 0.0823453 51.0207 0.0146097 42.79 0H31.5811Z" fill="url(#paint0_radial_244_177)"/>
<path d="M31.5811 0C17.2059 0 13.0011 0.0146097 12.1832 0.0810172C9.2334 0.324069 7.39732 0.782281 5.39714 1.76644C3.85564 2.52216 2.63965 3.39874 1.44115 4.62728C-0.744657 6.86654 -2.06825 9.62245 -2.54711 12.8977C-2.77981 14.4875 -2.84842 14.8129 -2.86187 22.9358C-2.86725 25.6439 -2.86187 29.2074 -2.86187 33.9874C-2.86187 48.1747 -2.84573 52.3225 -2.77712 53.1287C-2.53904 55.9643 -2.08843 57.748 -1.13474 59.6991C0.687891 63.4338 4.1677 66.2375 8.26627 67.2841C9.68536 67.6454 11.2538 67.8433 13.2661 67.9376C14.1189 67.9748 22.811 68 31.5085 68C40.206 68 48.9022 67.9894 49.7348 67.9482C52.0659 67.8393 53.4191 67.66 54.9148 67.2788C59.0403 66.2269 62.4569 63.4657 64.3158 59.6778C65.2507 57.7732 65.7242 55.9218 65.9394 53.2349C65.9865 52.6492 66.0053 43.307 66.0053 33.9781C66.0053 24.6478 65.9838 15.3229 65.938 14.7372C65.7215 12.0065 65.2467 10.1697 64.2822 8.22922C63.4899 6.64075 62.6116 5.45339 61.3351 4.24079C59.0564 2.09184 56.2707 0.783609 52.951 0.310787C51.3409 0.0823453 51.0207 0.0146097 42.79 0H31.5811Z" fill="url(#paint1_radial_244_177)"/>
<path d="M31.5811 0C17.2059 0 13.0011 0.0146097 12.1832 0.0810172C9.2334 0.324069 7.39732 0.782281 5.39714 1.76644C3.85564 2.52216 2.63965 3.39874 1.44115 4.62728C-0.744657 6.86654 -2.06825 9.62245 -2.54711 12.8977C-2.77981 14.4875 -2.84842 14.8129 -2.86187 22.9358C-2.86725 25.6439 -2.86187 29.2074 -2.86187 33.9874C-2.86187 48.1747 -2.84573 52.3225 -2.77712 53.1287C-2.53904 55.9643 -2.08843 57.748 -1.13474 59.6991C0.687891 63.4338 4.1677 66.2375 8.26627 67.2841C9.68536 67.6454 11.2538 67.8433 13.2661 67.9376C14.1189 67.9748 22.811 68 31.5085 68C40.206 68 48.9022 67.9894 49.7348 67.9482C52.0659 67.8393 53.4191 67.66 54.9148 67.2788C59.0403 66.2269 62.4569 63.4657 64.3158 59.6778C65.2507 57.7732 65.7242 55.9218 65.9394 53.2349C65.9865 52.6492 66.0053 43.307 66.0053 33.9781C66.0053 24.6478 65.9838 15.3229 65.938 14.7372C65.7215 12.0065 65.2467 10.1697 64.2822 8.22922C63.4899 6.64075 62.6116 5.45339 61.3351 4.24079C59.0564 2.09184 56.2707 0.783609 52.951 0.310787C51.3409 0.0823453 51.0207 0.0146097 42.79 0H31.5811Z" fill="url(#paint2_radial_244_177)"/>
<path d="M31.5811 0C17.2059 0 13.0011 0.0146097 12.1832 0.0810172C9.2334 0.324069 7.39732 0.782281 5.39714 1.76644C3.85564 2.52216 2.63965 3.39874 1.44115 4.62728C-0.744657 6.86654 -2.06825 9.62245 -2.54711 12.8977C-2.77981 14.4875 -2.84842 14.8129 -2.86187 22.9358C-2.86725 25.6439 -2.86187 29.2074 -2.86187 33.9874C-2.86187 48.1747 -2.84573 52.3225 -2.77712 53.1287C-2.53904 55.9643 -2.08843 57.748 -1.13474 59.6991C0.687891 63.4338 4.1677 66.2375 8.26627 67.2841C9.68536 67.6454 11.2538 67.8433 13.2661 67.9376C14.1189 67.9748 22.811 68 31.5085 68C40.206 68 48.9022 67.9894 49.7348 67.9482C52.0659 67.8393 53.4191 67.66 54.9148 67.2788C59.0403 66.2269 62.4569 63.4657 64.3158 59.6778C65.2507 57.7732 65.7242 55.9218 65.9394 53.2349C65.9865 52.6492 66.0053 43.307 66.0053 33.9781C66.0053 24.6478 65.9838 15.3229 65.938 14.7372C65.7215 12.0065 65.2467 10.1697 64.2822 8.22922C63.4899 6.64075 62.6116 5.45339 61.3351 4.24079C59.0564 2.09184 56.2707 0.783609 52.951 0.310787C51.3409 0.0823453 51.0207 0.0146097 42.79 0H31.5811Z" fill="url(#paint3_radial_244_177)"/>
<path d="M31.584 8.73242C24.6298 8.73242 23.7568 8.76297 21.0262 8.88516C18.2996 9.00868 16.4394 9.43369 14.8118 10.0592C13.1277 10.7047 11.6992 11.568 10.276 12.9719C8.85156 14.3757 7.97724 15.7862 7.32082 17.4464C6.68593 19.0535 6.25414 20.8903 6.13174 23.5785C6.00933 26.2733 5.97705 27.1353 5.97705 33.9965C5.97705 40.8577 6.00799 41.7171 6.13174 44.4119C6.25683 47.1014 6.68862 48.9369 7.32082 50.5439C7.97589 52.2055 8.85022 53.6146 10.2747 55.0198C11.6978 56.425 13.1263 57.2909 14.8091 57.9364C16.438 58.5607 18.2996 58.987 21.0248 59.1105C23.7568 59.2327 24.6284 59.2633 31.5827 59.2633C38.5369 59.2633 39.4072 59.2327 42.1391 59.1105C44.8657 58.987 46.7286 58.562 48.3576 57.9364C50.0417 57.2909 51.4675 56.4263 52.8906 55.0211C54.3151 53.6173 55.1894 52.2068 55.8458 50.5466C56.4753 48.9395 56.9071 47.1027 57.0349 44.4145C57.1573 41.7197 57.1896 40.8604 57.1896 33.9992C57.1896 27.1379 57.1573 26.276 57.0349 23.5811C56.9071 20.8916 56.4753 19.0561 55.8458 17.4491C55.1894 15.7876 54.3151 14.3784 52.8906 12.9732C51.4661 11.568 50.0417 10.7047 48.3562 10.0592C46.7233 9.43501 44.8616 9.00868 42.1364 8.88516C39.4045 8.76297 38.5355 8.73242 31.5786 8.73242H31.584ZM29.2879 13.2853C29.9699 13.284 30.7298 13.2853 31.5853 13.2853C38.4226 13.2853 39.2323 13.3092 41.932 13.4301C44.4285 13.543 45.783 13.9547 46.6856 14.3C47.8801 14.7582 48.7329 15.3054 49.6287 16.19C50.5246 17.0745 51.0801 17.9166 51.5455 19.096C51.8966 19.9858 52.3136 21.322 52.4279 23.7857C52.5503 26.4486 52.5772 27.2495 52.5772 33.9912C52.5772 40.7342 52.5503 41.5338 52.4279 44.1967C52.3136 46.6604 51.8966 47.9966 51.5455 48.8864C51.0814 50.0658 50.5259 50.9052 49.6287 51.7884C48.7329 52.673 47.8814 53.2202 46.6856 53.6784C45.7844 54.0264 44.4285 54.4368 41.932 54.5483C39.2323 54.6692 38.4212 54.6957 31.5853 54.6957C24.7481 54.6957 23.937 54.6692 21.2387 54.5483C18.7422 54.4341 17.3877 54.0237 16.4837 53.6771C15.2893 53.2188 14.4351 52.6716 13.5393 51.7871C12.6434 50.9025 12.0879 50.0631 11.6225 48.8838C11.2714 47.9939 10.8544 46.6578 10.7401 44.194C10.6177 41.5311 10.5935 40.7302 10.5935 33.9846C10.5935 27.2375 10.6177 26.442 10.7401 23.779C10.8544 21.3153 11.2714 19.9792 11.6225 19.088C12.0866 17.9086 12.6421 17.0666 13.5393 16.182C14.4351 15.2975 15.2893 14.7503 16.4837 14.2907C17.3863 13.9428 18.7422 13.5324 21.2387 13.4195C23.6007 13.3145 24.5168 13.2827 29.2892 13.2774L29.2879 13.2853ZM45.2531 17.481C43.5569 17.481 42.1808 18.837 42.1808 20.5118C42.1808 22.1853 43.5569 23.544 45.2531 23.544C46.9492 23.544 48.3253 22.1866 48.3253 20.5118C48.3253 18.837 46.9492 17.4796 45.2531 17.481ZM31.584 21.0231C24.3217 21.0231 18.4342 26.8325 18.4342 33.9978C18.4342 41.1632 24.3217 46.9699 31.584 46.9699C38.8463 46.9699 44.7311 41.1632 44.7311 33.9978C44.7311 26.8325 38.8463 21.0231 31.584 21.0231ZM31.584 25.576C36.2973 25.576 40.1201 29.3467 40.1201 33.9978C40.1201 38.649 36.2986 42.4196 31.584 42.4196C26.8694 42.4196 23.0479 38.649 23.0479 33.9978C23.0492 29.3453 26.8707 25.576 31.584 25.576Z" fill="white"/>
</g>
<defs>
<radialGradient id="paint0_radial_244_177" cx="0" cy="0" r="1" gradientUnits="userSpaceOnUse" gradientTransform="translate(63.782 31.8735) rotate(164.439) scale(43.9635 31.3319)">
<stop stop-color="#FF005F"/>
<stop offset="1" stop-color="#FC01D8"/>
</radialGradient>
<radialGradient id="paint1_radial_244_177" cx="0" cy="0" r="1" gradientUnits="userSpaceOnUse" gradientTransform="translate(15.4286 73.2389) rotate(-90) scale(54.28 58.3256)">
<stop stop-color="#FFCC00"/>
<stop offset="0.1242" stop-color="#FFCC00"/>
<stop offset="0.5672" stop-color="#FE4A05"/>
<stop offset="0.6942" stop-color="#FF0F3F"/>
<stop offset="1" stop-color="#FE0657" stop-opacity="0"/>
</radialGradient>
<radialGradient id="paint2_radial_244_177" cx="0" cy="0" r="1" gradientUnits="userSpaceOnUse" gradientTransform="translate(33.3101 67.0421) rotate(-59.553) scale(22.5178 29.4991)">
<stop stop-color="#FFCC00"/>
<stop offset="1" stop-color="#FFCC00" stop-opacity="0"/>
</radialGradient>
<radialGradient id="paint3_radial_244_177" cx="0" cy="0" r="1" gradientUnits="userSpaceOnUse" gradientTransform="translate(6.47977 2.77122) rotate(164.463) scale(43.4757 14.6524)">
<stop stop-color="#780CFF"/>
<stop offset="1" stop-color="#820BFF" stop-opacity="0"/>
</radialGradient>
<clipPath id="clip0_244_177">
<rect width="66" height="68" fill="white"/>
</clipPath>
</defs>
</svg>
