<svg width="68" height="68" viewBox="0 0 68 68" fill="none" xmlns="http://www.w3.org/2000/svg">
<path d="M34 68C52.7777 68 68 52.7777 68 34C68 15.2223 52.7777 0 34 0C15.2223 0 0 15.2223 0 34C0 52.7777 15.2223 68 34 68Z" fill="#007AB9"/>
<path d="M54.316 36.7374V50.7548H46.189V37.6768C46.189 34.393 45.0156 32.1505 42.0731 32.1505C39.8276 32.1505 38.4936 33.6603 37.9045 35.1222C37.6905 35.6446 37.6354 36.3701 37.6354 37.1028V50.7542H29.5078C29.5078 50.7542 29.6169 28.6043 29.5078 26.3115H37.636V29.7753C37.6196 29.8026 37.5966 29.8292 37.582 29.8553H37.636V29.7753C38.716 28.1134 40.6421 25.7376 44.9605 25.7376C50.3073 25.7376 54.316 29.231 54.316 36.7374ZM21.0057 14.5293C18.2256 14.5293 16.4067 16.3542 16.4067 18.7519C16.4067 21.0986 18.1729 22.9763 20.899 22.9763H20.9517C23.7864 22.9763 25.5489 21.0986 25.5489 18.7519C25.4949 16.3542 23.7864 14.5293 21.0057 14.5293ZM16.8898 50.7548H25.0143V26.3115H16.8898V50.7548Z" fill="#F1F2F2"/>
</svg>
