<svg width="650" height="429" viewBox="0 0 650 429" fill="none" xmlns="http://www.w3.org/2000/svg">
<path d="M529.249 316.806L563.211 353.903V188.125" stroke="#CCDDE2" stroke-width="3.04935" stroke-miterlimit="10"/>
<path d="M563.211 330.396L593.912 303.393" stroke="#CCDDE2" stroke-width="3.04935" stroke-miterlimit="10"/>
<path d="M563.211 263.148L542.273 239.697" stroke="#CCDDE2" stroke-width="3.04935" stroke-miterlimit="10"/>
<path d="M563.211 242.044L578.561 232.793" stroke="#CCDDE2" stroke-width="3.04935" stroke-miterlimit="10"/>
<path d="M563.211 197.745C563.211 194.935 552.742 175.072 552.742 175.072" stroke="#CCDDE2" stroke-width="3.04935" stroke-miterlimit="10"/>
<path d="M529.982 365.986L531.574 366.058L540.458 366.216C543.736 366.265 546.862 367.604 549.16 369.942C551.459 372.28 552.746 375.43 552.742 378.709V425.95" stroke="#CCDDE2" stroke-width="3.04935" stroke-miterlimit="10"/>
<path d="M502.516 306.173C504.02 304.444 505.633 302.636 507.383 300.799C566.927 237.751 503.783 266.98 510.688 245.856C517.592 224.732 539.027 227.513 543.678 208.392C546.709 195.936 542.908 182.528 543.8 169.855C544.412 161.31 547.933 150.546 553.456 143.918C560.526 135.446 569.533 141.605 574.206 149.588C582.126 163.169 578.576 179.797 578.526 194.696C578.526 206.224 582.025 216.159 591.349 223.191C599.708 229.509 609.472 235.215 612.949 245.791C616.729 257.319 598.009 254.3 592.696 258.94C583.091 267.341 602.776 286.699 608.226 292.247C621.906 306.166 648.424 331.354 629.826 354.264C618.155 368.616 606.664 365.482 593.963 365.993L587.123 365.907C585.27 365.874 583.429 366.211 581.708 366.899C579.988 367.587 578.422 368.612 577.103 369.914C575.784 371.216 574.737 372.769 574.026 374.481C573.315 376.193 572.953 378.03 572.96 379.884" stroke="#CCDDE2" stroke-width="3.04935" stroke-miterlimit="10"/>
<path d="M452.878 337.564L478.848 365.935V239.156" stroke="#CCDDE2" stroke-width="3.04935" stroke-miterlimit="10"/>
<path d="M486.165 341.532L478.85 347.958" stroke="#CCDDE2" stroke-width="3.04935" stroke-miterlimit="10"/>
<path d="M478.849 296.534L462.836 278.602" stroke="#CCDDE2" stroke-width="3.04935" stroke-miterlimit="10"/>
<path d="M478.85 280.394L490.586 273.319" stroke="#CCDDE2" stroke-width="3.04935" stroke-miterlimit="10"/>
<path d="M478.848 246.511C478.848 244.349 470.842 229.176 470.842 229.176" stroke="#CCDDE2" stroke-width="3.04935" stroke-miterlimit="10"/>
<path d="M502.516 306.173C489.225 321.577 485.121 333.025 486.165 341.534C488.785 362.225 522.265 365.496 529.984 365.986" stroke="#CCDDE2" stroke-width="3.04935" stroke-miterlimit="10"/>
<path d="M470.835 421.035V384.911C470.838 382.408 469.858 380.004 468.108 378.217C466.358 376.428 463.976 375.4 461.475 375.351L454.671 375.243C454.671 375.243 390.591 373.528 436.167 325.322C481.743 277.116 433.403 299.472 438.702 283.312C444.001 267.152 460.359 269.291 463.902 254.695C466.213 245.156 463.311 234.896 464.01 225.213C464.463 218.686 467.156 210.444 471.375 205.401C476.797 198.917 483.673 203.636 487.259 209.724C493.343 220.12 490.599 232.85 490.563 244.226C490.527 253.031 493.22 260.646 500.363 266.035C506.763 270.869 514.215 275.228 516.872 283.326C519.752 292.13 505.431 289.81 501.378 293.376C497.879 296.438 499.448 301.374 502.508 306.186" stroke="#CCDDE2" stroke-width="3.04935" stroke-miterlimit="10"/>
<path d="M486.322 385.82C486.322 384.407 486.602 383.009 487.147 381.706C487.692 380.403 488.489 379.221 489.494 378.229C490.499 377.237 491.691 376.454 493 375.927C494.31 375.4 495.711 375.138 497.122 375.157L502.335 375.244C512.062 374.848 520.839 377.239 529.76 366.267L529.99 365.986" stroke="#CCDDE2" stroke-width="3.04935" stroke-miterlimit="10"/>
<path d="M650 426.972H2" stroke="#18072B" stroke-width="3.04935" stroke-miterlimit="10"/>
<path d="M64.726 422.656C60.0604 421.719 55.474 420.603 51.0028 419.299C32.6428 413.924 11.2876 404.752 3.98684 385.473C2.15832 380.492 1.58283 375.138 2.31111 369.882C3.03939 364.626 5.04905 359.631 8.16284 355.336C11.4575 350.742 16.0968 347.285 21.4396 345.444C33.0604 341.69 45.9196 347.548 54.5596 356.2C63.1996 364.853 68.722 376.013 75.4396 386.201C69.334 372.512 63.142 358.456 62.2996 343.499C61.6372 331.842 64.8124 319.205 72.8404 310.444C80.2348 302.382 97.522 296.035 107.703 301.993C114.42 305.905 117.099 314.241 118.251 321.899C121.412 342.93 117.351 364.298 113.312 385.17C116.026 374.01 118.942 362.742 124.472 352.677C130.001 342.613 138.49 333.708 149.348 329.983C156.958 327.375 165.987 327.656 172.388 332.569C178.335 337.151 180.992 344.889 181.805 352.36C183.18 364.875 180.228 377.577 175.167 389.104C156.245 432.101 103.851 430.473 64.726 422.656Z" stroke="#CCDDE2" stroke-width="3.04935" stroke-miterlimit="10"/>
<path d="M107.357 401.339C107.357 401.339 136.481 409.437 146.77 368.918" stroke="#CCDDE2" stroke-width="3.04935" stroke-miterlimit="10"/>
<path d="M94.3976 332.197C86.3048 350.561 94.3976 405.684 94.3976 405.684" stroke="#CCDDE2" stroke-width="3.04935" stroke-miterlimit="10"/>
<path d="M67.4041 400.094C66.1873 399.885 54.5089 398.25 44.5513 393.668C36.833 390.123 30.1514 384.813 30.1514 377.032" stroke="#CCDDE2" stroke-width="3.04935" stroke-miterlimit="10"/>
<path d="M46.8917 377.032C46.8917 377.032 35.5012 390.318 44.5517 393.668" stroke="#CCDDE2" stroke-width="3.04935" stroke-miterlimit="10"/>
<path d="M39.332 405.755C40.952 403.5 49.412 408.025 54.884 397.391" stroke="#CCDDE2" stroke-width="3.04935" stroke-miterlimit="10"/>
<path d="M90.7973 356.504C87.9173 354.343 80.3645 356.504 79.2773 339.213" stroke="#CCDDE2" stroke-width="3.04935" stroke-miterlimit="10"/>
<path d="M92.0566 372.709C92.0566 372.709 104.657 368.163 104.657 358.3" stroke="#CCDDE2" stroke-width="3.04935" stroke-miterlimit="10"/>
<path d="M119.137 401.571C119.137 401.571 125.71 384.597 128.41 377.032" stroke="#CCDDE2" stroke-width="3.04935" stroke-miterlimit="10"/>
<path d="M139.52 385.353C139.52 385.353 146.72 391.08 155.36 381.895" stroke="#CCDDE2" stroke-width="3.04935" stroke-miterlimit="10"/>
<path d="M139.52 377.032C139.52 377.032 134.862 375.014 137.022 363.343" stroke="#CCDDE2" stroke-width="3.04935" stroke-miterlimit="10"/>
<path d="M447.212 332.601C445.607 328.869 443.958 325.1 442.266 321.368C442.216 321.272 442.175 321.17 442.143 321.066C438.479 312.954 434.684 304.942 430.919 297.456C430.873 297.409 430.839 297.353 430.818 297.291C408.973 260.317 377.271 243.66 367.458 239.171C365.543 238.314 364.463 237.888 364.463 237.888C348.983 231.137 334.518 225.864 322.393 221.887C322.559 221.786 322.717 221.678 322.904 221.578C324.618 220.598 327.836 218.768 331.544 216.664L333.351 215.627C337.225 213.422 341.466 211.022 345.109 208.94C345.678 208.616 346.254 208.285 346.801 207.982C349.451 206.477 351.647 205.208 352.971 204.437C363.815 198.155 374.996 191.549 384.651 183.458C385.731 182.557 386.768 181.642 387.805 180.705C388.842 179.768 389.821 178.81 390.8 177.823C395.76 172.962 399.981 167.398 403.328 161.311C410.622 147.838 411.911 131.361 407.749 116.685C407.612 116.196 407.468 115.706 407.324 115.245C407.036 114.286 406.734 113.393 406.41 112.514C406.244 112.089 406.079 111.678 405.899 111.275C405.798 111.009 405.682 110.75 405.553 110.496C405.431 110.188 405.287 109.89 405.121 109.603C404.747 108.843 404.327 108.106 403.861 107.398C400.745 109.966 396.792 111.295 392.759 111.13C389.01 110.936 385.378 109.761 382.225 107.723C368.293 99.2215 364.275 80.0788 363.627 74.1926C363.35 74.2229 363.071 74.2344 362.792 74.2286C362.081 74.2358 361.374 74.1407 360.69 73.9477L357.615 73.0903L357.428 73.0471C353.483 71.9952 349.487 71.0968 345.44 70.3526C343.748 70.0211 342.013 69.7402 340.307 69.4736C339.695 69.3727 339.083 69.2863 338.471 69.207C335.922 68.818 333.359 68.4866 330.788 68.2488C330.385 68.1912 329.953 68.1479 329.528 68.1047C327.548 67.9246 325.554 67.7373 323.559 67.6148C320.867 67.4347 318.159 67.3122 315.452 67.2113C310.009 67.0456 304.551 67.0889 299.072 67.2906C230.823 69.841 161.732 99.7114 132.803 113.998C132.5 114.157 132.191 114.3 131.888 114.466C124.415 118.176 119.706 120.763 118.561 121.419L118.28 121.577C108.668 126.525 99.6156 132.493 91.2801 139.38C85.8362 143.869 81.0237 149.075 76.9737 154.855L76.8153 155.101C71.5593 162.456 77.9961 171.779 87.1401 171.613C91.2153 171.534 95.8233 169.574 100.179 164.761C106.479 157.852 111.699 155.734 115.501 155.525C116.454 155.482 117.405 155.667 118.273 156.063C119.141 156.459 119.903 157.056 120.496 157.804C121.088 158.553 121.494 159.432 121.681 160.368C121.869 161.304 121.83 162.272 121.571 163.191L120.577 166.742C120.296 167.751 120.24 168.809 120.413 169.841C120.586 170.873 120.984 171.855 121.578 172.716C122.172 173.577 122.949 174.297 123.852 174.825C124.755 175.353 125.763 175.675 126.805 175.771C127.016 175.781 127.228 175.781 127.439 175.771C128.915 175.769 130.355 175.309 131.559 174.456C132.764 173.601 133.673 172.395 134.163 171.001C136.284 164.912 139.789 159.399 144.404 154.897C149.018 150.396 154.616 147.03 160.753 145.065L168.349 142.614C196.047 133.706 225.165 130.062 254.202 131.873C253.021 133.811 248.946 141.722 257.543 145.922C257.687 145.979 257.831 146.058 257.989 146.123L254.101 149.956L252.207 151.851L251.019 152.99C250.127 154.013 249.227 155.05 248.334 156.095C248.089 156.376 247.823 156.686 247.578 156.988C244.583 160.59 241.609 164.409 238.7 168.465L238.268 168.163C238.268 168.163 233.948 175.965 210.131 176.232C208.505 176.458 206.992 177.195 205.811 178.335C204.932 179.289 204.371 180.493 204.205 181.779C204.139 182.257 204.139 182.742 204.205 183.219C204.205 183.342 204.248 183.486 204.263 183.623C204.281 183.755 204.31 183.885 204.349 184.013C204.497 184.607 204.715 185.183 204.997 185.727C205.263 186.228 205.563 186.709 205.897 187.168C211.52 191.671 222.32 194.993 222.32 194.993C222.752 194.135 223.22 193.299 223.667 192.464C223.141 193.501 222.551 194.762 221.895 196.275C224.3 197.031 227.051 197.759 230.103 198.436C227.497 197.86 224.667 197.232 221.831 196.411C221.762 196.397 221.694 196.378 221.629 196.354C221.617 196.359 221.604 196.359 221.593 196.354C216.474 194.87 211.427 192.752 207.776 189.222C207.606 189.088 207.45 188.938 207.308 188.775L207.186 188.652C206.695 188.165 206.238 187.645 205.818 187.096C204.255 185.792 203.111 184.43 202.808 183.003C202.621 187.463 204.025 197.132 217.741 204.042C215.214 209.236 212.809 214.683 210.483 220.41C169.314 321.729 60.8457 246.44 60.8457 246.44L47.1153 236.145L40.5921 244.856L46.2153 237.593L62.9409 247.853L40.0449 277.615C53.3721 289.863 171.186 392.774 263.54 287.5C263.641 287.399 270.74 278.797 270.791 278.696C271.95 279.121 273.174 279.553 274.391 279.978C367.573 312.111 368.271 301.592 403.695 358.098C419.672 383.559 428.593 397.63 433.547 405.396L476.826 405.785C473.802 397.839 459.769 361.614 447.212 332.601ZM261.661 205.497C264.303 206.088 266.874 206.7 269.502 207.327C266.874 206.7 264.303 206.109 261.661 205.497ZM273.901 134.106L273.109 133.941L272.389 133.796L271.554 133.631L271.043 133.53C275.953 134.186 280.842 134.971 285.695 136.001C285.754 135.99 285.815 135.99 285.875 136.001C289.604 136.716 293.312 137.552 296.999 138.508L297.344 138.594C297.164 138.695 296.999 138.796 296.819 138.875C295.551 138.616 294.191 138.327 292.779 138.018H292.743C285.925 136.634 278.077 135 273.879 134.106H273.901ZM305.84 216.787C304.4 216.383 302.96 216.015 301.643 215.647C297.423 214.502 293.723 213.487 290.339 212.608C292.146 213.04 294.939 213.732 298.525 214.712C300.908 215.338 303.637 216.152 306.697 216.995C306.798 217.031 306.899 217.053 306.999 217.096C307.244 217.154 307.511 217.24 307.755 217.32C307.107 217.132 306.459 216.974 305.84 216.787Z" fill="white"/>
<path d="M434.251 405.365L492.794 405.913C495.674 405.913 510.65 415.041 506.741 420.985C503.457 425.963 506.741 426.95 506.741 426.95H448.838L434.251 405.365Z" fill="#7721D6"/>
<path d="M254.777 149.99L252.883 151.885L251.313 153.412C251.781 152.886 252.235 152.353 252.703 151.849C253.171 151.345 253.473 150.97 253.862 150.538C254.126 150.294 254.438 150.108 254.777 149.99Z" fill="#B79CED"/>
<path d="M547.408 93.8883C547.206 93.665 547.033 93.4632 546.839 93.2615C542.166 88.1174 544.103 81.8278 548.517 77.0079C551.922 73.2687 557.574 69.4358 562.859 69.4502C568.021 69.4502 573.709 73.9315 576.798 77.7572C582.083 84.299 584.214 92.6347 578.857 99.7673C572.82 107.763 565.922 115.069 558.287 121.554C541.151 136.316 518.982 149.184 497.433 157.858C473.601 167.448 445.521 169.285 419.953 165.841C415.144 165.192 408.628 162.88 404.034 161.324" stroke="#18072B" stroke-width="3.04935" stroke-miterlimit="10"/>
<path d="M553.376 98.6147L553.398 98.6441" stroke="#18072B" stroke-width="3.04935" stroke-miterlimit="10"/>
<path d="M567.775 100.049C564.938 103.335 558.501 106.649 555.009 102.211C552.806 99.4082 554.577 95.8131 556.363 93.3131C559.469 88.8325 564.161 85.7007 569.489 84.5522" stroke="#18072B" stroke-width="3.04935" stroke-miterlimit="10"/>
<path d="M558.287 79.9902C553.492 81.813 547.804 86.3519 547.314 91.9067C546.932 96.2655 551.396 99.4571 554.845 96.0926" stroke="#18072B" stroke-width="3.04935" stroke-miterlimit="10"/>
<path d="M425.15 70.7612C425.834 75.8765 430.19 79.2267 434.698 78.4846" stroke="#18072B" stroke-width="3.04935" stroke-miterlimit="10"/>
<path d="M404.033 161.323C393.356 181.1 372.987 193.269 353.734 204.443C348.824 207.275 329.974 217.959 323.091 221.893C319.304 220.61 315.732 219.443 312.456 218.384C312.356 218.384 312.269 218.326 312.168 218.305C298.258 213.903 289.208 211.64 287.904 211.309L302.304 215.632C268.011 206.396 265.448 206.194 230.772 198.449C227.612 197.728 224.804 197.008 222.334 196.208C222.989 194.94 223.659 193.679 224.336 192.455C224.372 192.375 224.415 192.31 224.436 192.253C224.537 192.066 224.66 191.864 224.739 191.676C224.948 191.309 225.149 190.956 225.329 190.596L225.761 189.875C225.819 189.767 225.884 189.666 225.941 189.566C225.999 189.465 225.984 189.508 226.028 189.421C227.021 187.627 228.044 185.877 229.08 184.162C232.4 178.578 235.841 173.355 239.348 168.485C243.245 163.086 247.205 158.078 251.228 153.463L251.285 153.398L252.855 151.871L254.748 149.976L271.474 133.485C271.474 133.485 287.242 136.748 297.43 138.91C300.828 137.264 304.074 135.318 307.128 133.096C319.52 124.018 331.14 104.933 329.038 88.9746C327.188 75.012 312.312 67.9947 299.518 67.2671C319.462 66.5106 339.327 68.0812 358.09 73.0308C358.152 73.0344 358.213 73.0495 358.27 73.074L361.352 73.9313C362.305 74.195 363.298 74.2786 364.282 74.1763C364.937 80.0697 368.948 99.2124 382.887 107.707C392.175 113.355 399.936 111.158 404.537 107.382C406.316 110.258 407.63 113.398 408.432 116.684C412.608 131.359 411.327 147.829 404.033 161.323Z" fill="#B79CED"/>
<path d="M63.6539 247.851L33.1836 287.476C33.1836 287.476 20.8356 290.718 16.1268 287.065L11.418 283.405L46.9139 237.642L63.6539 247.851Z" fill="#7721D6"/>
<path d="M133.486 113.976L132.564 114.443" stroke="#18072B" stroke-width="3.04935" stroke-miterlimit="10"/>
<path d="M119.237 121.403L118.963 121.554" stroke="#18072B" stroke-width="3.04935" stroke-miterlimit="10"/>
<path d="M271.495 278.695L264.238 287.506C166.231 399.235 39.5039 276.476 39.5039 276.476L45.2639 268.659" stroke="#18072B" stroke-width="3.04935" stroke-miterlimit="10"/>
<path d="M288.596 212.037C288.596 212.037 323.242 219.595 365.197 237.895C365.197 237.895 366.269 238.305 368.185 239.177" stroke="#18072B" stroke-width="3.04935" stroke-miterlimit="10"/>
<path d="M431.51 297.297C431.51 297.347 431.56 297.376 431.582 297.427C435.362 304.912 439.171 312.938 442.821 321.072C442.871 321.173 442.9 321.274 442.951 321.375C444.635 325.107 446.299 328.868 447.904 332.6C462.081 365.388 478.144 407.376 478.144 407.376" stroke="#18072B" stroke-width="3.04935" stroke-miterlimit="10"/>
<path d="M431.609 297.448C431.566 297.405 431.531 297.353 431.508 297.297C409.663 260.316 377.969 243.651 368.184 239.177C366.269 238.306 365.196 237.895 365.196 237.895" stroke="#18072B" stroke-width="3.04935" stroke-miterlimit="10"/>
<path d="M226.064 189.436C226.064 189.436 187.443 249.745 275.103 280.005C368.285 312.137 368.976 301.619 404.408 358.117C426.447 393.24 435.058 406.705 438.377 411.821L440.472 414.991L448.839 426.979H506.72V421.014C506.72 417.398 505.285 413.932 502.729 411.375C500.175 408.818 496.71 407.383 493.097 407.383H469.805" stroke="#18072B" stroke-width="3.04935" stroke-miterlimit="10"/>
<path d="M61.5441 246.447L47.8137 236.159L12.0801 283.839L17.8401 288.162C18.9508 288.995 20.2158 289.599 21.5616 289.94C22.9074 290.28 24.3073 290.349 25.6802 290.144C27.0531 289.939 28.3717 289.463 29.5595 288.745C30.7474 288.026 31.7809 287.079 32.6001 285.958L39.5193 276.469" stroke="#18072B" stroke-width="3.04935" stroke-miterlimit="10"/>
<path d="M403.76 106.172C415.28 115.25 432.2 117.836 442.849 119.399C444.44 119.63 446.053 119.774 447.658 119.94C462.445 121.45 477.379 120.476 491.845 117.058C502.397 114.577 512.578 110.721 522.128 105.588C530.48 101.064 534.231 93.0737 536.528 83.859L540.848 64.6803C541.505 63.1846 542.656 61.9591 544.106 61.2084C545.557 60.4584 547.222 60.2286 548.822 60.5571C550.422 60.8856 551.861 61.7531 552.899 63.0146C553.937 64.2761 554.513 65.8561 554.528 67.4901C554.521 68.3186 554.372 69.14 554.089 69.9181L553.174 72.4469" stroke="#18072B" stroke-width="3.04935" stroke-linejoin="round"/>
<path d="M119.237 121.403C109.527 126.401 100.378 132.424 91.9493 139.371C86.4981 143.857 81.6864 149.069 77.6501 154.861L77.4773 155.106C69.8957 165.74 86.6573 180.423 100.877 164.775C107.163 157.844 112.361 155.733 116.192 155.531C117.144 155.492 118.09 155.679 118.956 156.077C119.822 156.474 120.581 157.072 121.17 157.82C121.761 158.568 122.166 159.445 122.351 160.38C122.537 161.314 122.499 162.28 122.24 163.197L121.246 166.749C120.965 167.756 120.909 168.813 121.082 169.845C121.255 170.876 121.651 171.856 122.245 172.717C122.839 173.578 123.614 174.297 124.516 174.824C125.419 175.352 126.426 175.675 127.467 175.769C129.049 175.912 130.635 175.523 131.97 174.661C133.307 173.799 134.316 172.516 134.84 171.014C136.959 164.927 140.463 159.415 145.074 154.914C149.687 150.413 155.28 147.046 161.415 145.077L169.04 142.642C217.557 127.06 269.832 127.751 317.921 144.609L336.202 151.043" stroke="#18072B" stroke-width="3.04935" stroke-miterlimit="10"/>
<path d="M87.824 171.605C87.824 171.605 69.2048 166.475 99.7472 146.346" stroke="#18072B" stroke-width="3.04935" stroke-miterlimit="10"/>
<path d="M323.623 221.576C328.937 218.536 348.463 207.505 353.726 204.443C372.986 193.269 393.369 181.1 404.047 161.324C411.326 147.837 412.615 131.36 408.453 116.655C407.323 112.657 406.185 109.53 403.752 106.144" stroke="#18072B" stroke-width="3.04935" stroke-linejoin="round"/>
<path d="M472.585 26.1879C471.824 29.6656 469.992 32.8169 467.347 35.1981C464.701 37.5792 461.376 39.0691 457.839 39.4589C457.517 38.0352 456.852 36.7117 455.902 35.6044C451.87 31.015 450.344 39.8047 437.564 33.7672C419.859 25.3882 413.3 30.5251 413.3 30.5251C412.731 30.979 412.875 35.0136 412.81 35.7269C412.429 39.9055 412.04 44.0626 411.63 48.2413C411.385 50.7917 411.14 53.3206 410.91 55.8494C410.663 55.425 410.392 55.0158 410.096 54.6246C408.382 48.9978 403.616 42.4127 397.503 45.4099C396.27 46.0424 395.204 46.9582 394.393 48.0828C390.418 53.5223 393.615 58.6376 397.993 62.3912C399.079 63.5562 400.285 64.6023 401.593 65.5108C400.923 66.9517 398.173 72.8091 398.173 72.8307C397.885 73.4214 387.639 62.2687 386.869 61.0439C385.686 58.036 385.021 54.8501 384.903 51.6203C384.471 38.3494 389.569 22.8018 400.16 14.9632C402.788 13.0323 403.71 11.1951 403.832 8.62307C403.856 8.49339 403.914 8.37309 404.001 8.27438C404.088 8.1764 404.2 8.1029 404.325 8.06399C404.451 8.02437 404.584 8.02005 404.712 8.05175C404.839 8.08273 404.956 8.14829 405.049 8.24123C408.498 12.0525 416.828 11.4977 416.828 11.4977C445.628 3.67351 455.6 16.3536 461.468 18.515C463.863 19.3753 466.482 19.3753 468.877 18.515C469.034 19.3119 469.406 20.0511 469.953 20.6519C470.5 21.2528 471.201 21.6923 471.98 21.9228L471.858 23.2629C471.754 24.2924 472.011 25.3263 472.585 26.1879Z" fill="#7721D6"/>
<path d="M457.817 39.4787C461.354 39.0889 464.679 37.599 467.324 35.2179C469.97 32.8375 471.802 29.6862 472.563 26.2078C472.865 24.8757 473.044 23.5176 473.096 22.1516H472.872C472.561 22.1343 472.253 22.0738 471.958 21.9715C471.179 21.7424 470.478 21.3029 469.933 20.702C469.387 20.1012 469.016 19.3612 468.862 18.5637C468.76 18.1228 468.731 17.6674 468.776 17.2164L469.388 10.653C469.388 10.653 464.232 14.6516 458.386 12.4902C452.54 10.3288 442.546 -2.35132 413.746 5.4729C413.746 5.4729 405.416 6.02764 401.974 2.2164C401.881 2.12202 401.764 2.0543 401.636 2.02188C401.507 1.98946 401.372 1.99307 401.245 2.0327C401.119 2.07232 401.005 2.1458 400.918 2.24595C400.831 2.34537 400.772 2.46786 400.75 2.59826C400.628 5.17031 399.713 7.00748 397.085 8.93832C386.479 16.7265 381.44 32.2813 381.843 45.5522C382.116 51.0789 383.855 56.4333 386.883 61.0638C387.653 62.2885 397.899 73.4413 398.187 72.8505C398.187 72.8505 400.937 67.0004 401.607 65.5306L401.772 65.2064L401.448 64.9975C400.242 64.2201 399.09 63.3606 398 62.4254C393.68 58.6718 390.461 53.5565 394.4 48.1171C395.211 46.9931 396.277 46.0767 397.51 45.4441C403.623 42.447 408.389 49.0464 410.103 54.6588C410.432 55.733 410.644 56.839 410.736 57.9586C410.794 57.2381 410.859 56.5969 410.916 55.9052C411.14 53.3764 411.384 50.862 411.636 48.2972C412.047 44.1185 412.436 39.9614 412.817 35.7827C412.882 35.0623 412.738 31.0349 413.307 30.581C413.307 30.581 419.866 25.4441 437.571 33.8231C450.351 39.8606 451.877 31.0709 455.909 35.6603C456.859 36.7683 457.523 38.0918 457.846 39.5147C457.946 39.9708 458.014 40.4326 458.048 40.898C458.058 40.96 458.058 41.0234 458.048 41.0853C458.127 42.1012 458.17 43.1242 458.213 44.1185C458.494 53.7655 457.637 63.8519 454.037 72.8865C449.652 83.8304 437.693 94.7814 424.942 89.9687C420.967 88.4629 417.36 85.9701 414.063 83.326" stroke="#18072B" stroke-width="3.04935" stroke-miterlimit="10"/>
<path d="M388.337 62.8516L366.881 73.4928C365.15 74.2781 363.197 74.4287 361.366 73.9179L358.306 73.0749C358.243 73.0519 358.178 73.0353 358.112 73.0245C275.139 51.1224 170.832 95.4957 133.472 113.976L132.55 114.444C125.069 118.169 120.375 120.755 119.223 121.404L118.949 121.555" stroke="#18072B" stroke-width="3.04935" stroke-miterlimit="10"/>
<path d="M364.217 74.6738C363.936 75.5888 366.542 98.5428 381.842 107.873C391.706 113.881 399.727 110.481 403.759 106.158C404.195 105.687 404.604 105.191 404.983 104.674V104.623" stroke="#18072B" stroke-width="3.04935" stroke-miterlimit="10"/>
<path d="M403.754 106.174L420.487 86.145" stroke="#18072B" stroke-width="3.04935" stroke-miterlimit="10"/>
<path d="M312.457 218.384C312.357 218.384 312.27 218.327 312.169 218.305L302.334 215.655C268.041 206.418 265.477 206.217 230.802 198.472C227.641 197.751 224.833 197.03 222.364 196.23C196.516 188.01 205.969 176.26 209.469 176.26C234.431 176.26 238.989 168.169 238.989 168.169L239.413 168.472L312.457 218.384Z" fill="#B79CED"/>
<path d="M429.19 58.2977C430.653 58.2977 431.839 57.1111 431.839 55.6464C431.839 54.1824 430.653 52.9951 429.19 52.9951C427.727 52.9951 426.54 54.1824 426.54 55.6464C426.54 57.1111 427.727 58.2977 429.19 58.2977Z" fill="#18072B"/>
<path d="M449.538 58.2977C451.001 58.2977 452.188 57.1111 452.188 55.6464C452.188 54.1824 451.001 52.9951 449.538 52.9951C448.075 52.9951 446.889 54.1824 446.889 55.6464C446.889 57.1111 448.075 58.2977 449.538 58.2977Z" fill="#18072B"/>
<path d="M441.704 54.543C441.704 54.543 443.756 63.6424 443.993 64.5574C444.771 67.5401 438.874 66.5963 438.874 66.5963" stroke="#18072B" stroke-width="3.04935" stroke-miterlimit="10"/>
<path d="M438.234 42.9739C438.234 42.9739 429.522 37.4696 422.805 43.471" stroke="#18072B" stroke-width="3.04935" stroke-miterlimit="10"/>
<path d="M429.926 64.1127C435.138 64.1127 439.365 59.8843 439.365 54.6674C439.365 49.4513 435.138 45.2222 429.926 45.2222C424.713 45.2222 420.486 49.4513 420.486 54.6674C420.486 59.8843 424.713 64.1127 429.926 64.1127Z" stroke="#18072B" stroke-width="3.04935" stroke-miterlimit="10"/>
<path d="M453.8 63.3197C459.013 63.3197 463.239 59.0906 463.239 53.8745C463.239 48.6576 459.013 44.4292 453.8 44.4292C448.587 44.4292 444.36 48.6576 444.36 53.8745C444.36 59.0906 448.587 63.3197 453.8 63.3197Z" stroke="#18072B" stroke-width="3.04935" stroke-miterlimit="10"/>
<path d="M453.806 47.4638C455.506 47.4357 457.146 48.0848 458.368 49.2678C459.589 50.4508 460.291 52.0704 460.319 53.7714C460.346 55.4717 459.698 57.1137 458.516 58.3356C457.334 59.5582 455.714 60.2599 454.015 60.288H453.799C452.13 60.2657 450.536 59.5942 449.354 58.4155C448.172 57.2369 447.496 55.6432 447.468 53.9732C447.441 52.3039 448.065 50.6893 449.208 49.4724C450.351 48.2556 451.923 47.5322 453.59 47.4566H453.806V47.4638ZM453.806 45.9292H453.54C452.497 45.9458 451.469 46.1684 450.512 46.5834C449.555 46.9984 448.69 47.5971 447.965 48.3471C447.24 49.0964 446.67 49.9818 446.286 50.9523C445.903 51.922 445.714 52.9588 445.732 54.002C445.749 55.0445 445.971 56.074 446.385 57.0315C446.8 57.989 447.399 58.855 448.148 59.5805C448.897 60.306 449.782 60.8766 450.751 61.2599C451.721 61.6432 452.757 61.832 453.799 61.8154H454.066C456.166 61.7808 458.167 60.9127 459.628 59.4019C461.089 57.8918 461.891 55.8622 461.856 53.7606C461.821 51.6583 460.954 49.6562 459.445 48.1943C457.935 46.7325 455.907 45.9307 453.806 45.9652V45.9292Z" fill="white"/>
<path d="M439.357 54.3568L444.369 54.1914" stroke="#18072B" stroke-width="3.04935" stroke-miterlimit="10"/>
<path opacity="0.53" d="M429.925 62.6632C434.338 62.6632 437.917 59.0825 437.917 54.6661C437.917 50.2496 434.338 46.6689 429.925 46.6689C425.511 46.6689 421.933 50.2496 421.933 54.6661C421.933 59.0825 425.511 62.6632 429.925 62.6632Z" fill="white"/>
<path opacity="0.53" d="M453.8 61.8717C458.213 61.8717 461.792 58.2917 461.792 53.8746C461.792 49.4581 458.213 45.8774 453.8 45.8774C449.386 45.8774 445.808 49.4581 445.808 53.8746C445.808 58.2917 449.386 61.8717 453.8 61.8717Z" fill="white"/>
<path d="M61.5439 246.461C61.5439 246.461 170.005 321.742 211.182 220.424C214.69 211.778 218.405 203.733 222.327 196.288" stroke="#18072B" stroke-width="3.04935" stroke-miterlimit="10"/>
<path d="M298.07 138.636L271.502 133.499C270.898 133.384 268.183 136.381 267.658 136.835C259.628 144.14 252.166 152.047 245.338 160.487C240.658 166.165 236.021 171.013 228.864 173.456C225.457 174.559 221.939 175.285 218.374 175.617C214.716 176.013 209.266 175.401 206.494 178.34C205.884 179 205.425 179.784 205.148 180.639C204.871 181.493 204.782 182.398 204.888 183.29C205.158 184.894 205.868 186.39 206.94 187.613C212.448 194.378 222.708 196.655 230.779 198.456C268.594 206.907 268.219 206.381 312.434 218.384" stroke="#18072B" stroke-width="3.04935" stroke-miterlimit="10"/>
<path d="M252.883 151.886L251.313 153.414C251.781 152.888 252.235 152.354 252.703 151.85L252.883 151.886Z" fill="#B79CED"/>
<path d="M297.308 139.12C297.308 139.12 281.907 151.188 264.008 147.766C246.109 144.344 255.181 131.447 255.181 131.447C268.235 131.868 281.167 134.114 293.6 138.119" fill="#18072B"/>
<path d="M203.808 180.517C203.808 180.517 199.999 194.753 218.439 204.04L223.039 194.991C223.039 194.991 200.079 187.93 203.808 180.517Z" fill="#18072B"/>
<path d="M337.405 20.7632H287.185" stroke="#18072B" stroke-width="3.04935" stroke-miterlimit="10"/>
<path d="M290.9 32.9941H262.532" stroke="#18072B" stroke-width="3.04935" stroke-miterlimit="10"/>
<path d="M57.7939 318.398C57.7939 318.398 93.3475 358.154 169.711 358.154" stroke="#18072B" stroke-width="3.04935" stroke-miterlimit="10"/>
<path d="M386.409 352.339L404.035 379.558" stroke="#18072B" stroke-width="3.04935" stroke-miterlimit="10"/>
<path d="M110.619 106.172C91.5173 113.701 73.4885 124.947 63.6533 143.6" stroke="#18072B" stroke-width="3.04935" stroke-miterlimit="10"/>
<path d="M584.781 111.418C591.362 104.847 596.841 96.5907 597.604 85.8774" stroke="#18072B" stroke-width="3.04935" stroke-miterlimit="10"/>
</svg>
