<svg width="68" height="68" viewBox="0 0 68 68" fill="none" xmlns="http://www.w3.org/2000/svg">
<g clip-path="url(#clip0_244_130)">
<path d="M34 68C52.7777 68 68 52.7777 68 34C68 15.2223 52.7777 0 34 0C15.2223 0 0 15.2223 0 34C0 52.7777 15.2223 68 34 68Z" fill="#34AADF"/>
<path d="M14.1505 33.7045C14.1505 33.7045 31.1505 26.7277 37.0464 24.271C39.3065 23.2884 46.9712 20.1438 46.9712 20.1438C46.9712 20.1438 50.5089 18.7682 50.214 22.1092C50.1157 23.4849 49.3296 28.2999 48.5435 33.508C47.3643 40.878 46.0868 48.9357 46.0868 48.9357C46.0868 48.9357 45.8903 51.1959 44.2198 51.5889C42.5493 51.982 39.7978 50.2133 39.3065 49.8201C38.9134 49.5254 31.9366 45.1034 29.3817 42.9415C28.6938 42.352 27.9077 41.1728 29.4799 39.7971C33.0175 36.5543 37.2429 32.5254 39.7978 29.9705C40.977 28.7913 42.1561 26.0398 37.2429 29.3808C30.2661 34.1959 23.3875 38.7161 23.3875 38.7161C23.3875 38.7161 21.8152 39.6987 18.8672 38.8143C15.9192 37.93 12.4799 36.7508 12.4799 36.7508C12.4799 36.7508 10.1216 35.2768 14.1505 33.7045Z" fill="white"/>
</g>
<defs>
<clipPath id="clip0_244_130">
<rect width="68" height="68" fill="white"/>
</clipPath>
</defs>
</svg>
