<svg width="68" height="68" viewBox="0 0 68 68" fill="none" xmlns="http://www.w3.org/2000/svg">
<path d="M34 68C52.7777 68 68 52.7777 68 34C68 15.2223 52.7777 0 34 0C15.2223 0 0 15.2223 0 34C0 52.7777 15.2223 68 34 68Z" fill="#55ACEE"/>
<path d="M54.8277 24.4331C53.3706 25.0792 51.8033 25.5162 50.1596 25.7113C51.8379 24.7059 53.1258 23.1149 53.7337 21.216C52.1633 22.1476 50.4233 22.8234 48.5729 23.1876C47.0904 21.6088 44.9782 20.6221 42.6393 20.6221C38.1519 20.6221 34.5124 24.2616 34.5124 28.749C34.5124 29.386 34.5845 30.006 34.7239 30.6012C27.9697 30.2624 21.981 27.0271 17.9724 22.1088C17.273 23.3088 16.8718 24.7059 16.8718 26.195C16.8718 29.0139 18.3076 31.5025 20.487 32.9595C19.1555 32.9177 17.9015 32.5522 16.8063 31.9419C16.8057 31.9764 16.8057 32.011 16.8057 32.0449C16.8057 35.9826 19.6082 39.267 23.3253 40.0131C22.6441 40.1997 21.9247 40.2985 21.1846 40.2985C20.6598 40.2985 20.1513 40.2482 19.6555 40.1537C20.6895 43.3817 23.6902 45.7315 27.2473 45.7975C24.4654 47.9776 20.9616 49.2764 17.153 49.2764C16.4984 49.2764 15.8499 49.2382 15.2153 49.1625C18.81 51.4692 23.0829 52.8141 27.6721 52.8141C42.6206 52.8141 50.7954 40.4307 50.7954 29.6903C50.7954 29.3381 50.7875 28.9872 50.7718 28.6393C52.3609 27.4938 53.7385 26.0629 54.8277 24.4331Z" fill="#F1F2F2"/>
</svg>
